<?xml version="1.0" encoding="UTF-8" standalone="no"?>
<svg
   version="1.2"
   viewBox="0 0 889 558"
   width="924"
   height="580"
   id="svg2022"
   sodipodi:docname="logo.svg"
   xmlns:inkscape="http://www.inkscape.org/namespaces/inkscape"
   xmlns:sodipodi="http://sodipodi.sourceforge.net/DTD/sodipodi-0.dtd"
   xmlns="http://www.w3.org/2000/svg"
   xmlns:svg="http://www.w3.org/2000/svg">
  <defs
     id="defs2026" />
  <sodipodi:namedview
     id="namedview2024"
     pagecolor="#505050"
     bordercolor="#eeeeee"
     borderopacity="1"
     inkscape:showpageshadow="0"
     inkscape:pageopacity="0"
     inkscape:pagecheckerboard="0"
     inkscape:deskcolor="#505050"
     showgrid="false" />
  <title
     id="title2007">logo</title>
  <style
     id="style2009">
		.s0 { fill: #fcfcfc } 
		.s1 { fill: #fbfbfb } 
		.s2 { fill: #f8f8f8 } 
		.s3 { fill: #f4f4f4 } 
		.s4 { fill: #aaaaaa } 
		.s5 { fill: #d3d3d3 } 
		.s6 { fill: #e1e1e1 } 
	</style>
  <g
     id="Background">
    <path
       id="Path 0"
       class="s0"
       d="m 0,279 v 279 c 344,0 383,-0.3 383,-1.3 0,-0.6 0.6,-2.6 1.4,-4.2 0.8,-1.6 2.5,-3.9 3.7,-5 1.2,-1.1 4.3,-3 6.8,-4.3 2.5,-1.2 6.4,-2.2 8.6,-2.2 2.2,0 6.3,0.7 9,1.6 2.8,0.9 5.7,2.3 6.5,3 0.8,0.7 2.1,1.4 2.8,1.4 0.6,0 3.7,2.5 6.7,5.5 l 5.5,5.5 h 27 c 4.3,-4.6 5.9,-5.9 6.5,-5.9 0.6,0 2.6,-1.5 4.5,-3.2 1.9,-1.7 5.5,-4 8,-5.1 2.5,-1.2 6.8,-2.4 9.5,-2.6 3.4,-0.4 6.2,0 8.8,1.1 2,1 4,1.7 4.4,1.7 0.5,0 2.4,1.7 4.4,3.7 2,2.1 4.2,5.3 5,7.1 l 1.4,3.3 L 889,558 V 0 H 0 Z"
       style="display:inline" />
    <path
       id="Path 1"
       class="s1"
       d="m394.4 543.4c-2.3 1.1-5.1 3-6.3 4.1-1.2 1.1-2.9 3.4-3.7 5-0.8 1.7-1.4 3.6-1.4 4.3 0 0.7 1.4 1.2 3.5 1.2 2.7 0 4-0.7 5.7-2.9 1.3-1.6 3.8-3.6 5.8-4.6 2.5-1.3 5.1-1.6 9-1.4 4.4 0.4 6.8 1.3 12 4.7 4.8 3.2 7.5 4.3 10.3 4.2 2 0 3.7-0.3 3.7-0.7 0-0.5-2.3-2.9-5-5.5-2.8-2.7-5.6-4.8-6.2-4.8-0.7 0-2-0.7-2.8-1.4-0.8-0.7-3.7-2.1-6.5-3-2.7-0.9-7-1.6-9.5-1.5-2.5 0.1-6.4 1.1-8.6 2.3zm90.6-1.7c-0.8 0.3-3.3 1.4-5.5 2.4-2.2 0.9-5.6 3.1-7.5 4.8-1.9 1.7-3.8 3.1-4.2 3.1-0.5 0-1.9 1-3.3 2.3-1.4 1.2-2.5 2.5-2.5 3 0 0.4 2.1 0.7 4.8 0.7 3.5 0.1 5.2-0.5 6.7-2 1.1-1.2 4.4-3.2 7.3-4.6 2.8-1.3 7-2.4 9.2-2.4 2.2 0 5.6 0.8 7.7 1.8 2 0.9 4.7 2.9 6 4.5 1.7 2 3.2 2.7 5.8 2.7 1.9 0 3.5-0.1 3.5-0.2 0-0.2-0.6-1.9-1.4-3.8-0.8-1.9-2.9-4.9-4.8-6.7-1.8-1.7-4.6-3.5-6.2-4-1.6-0.4-3-1.1-3.2-1.5-0.2-0.5-2.8-0.8-5.6-0.7-2.9 0-6 0.3-6.8 0.6z" />
    <path
       id="Path 2"
       class="s2"
       d="m397.2 550.6c-1.8 0.9-4.2 3-5.3 4.5l-1.9 2.9c6.3 0 7.8-0.4 7.5-1-0.3-0.5 0.2-1.3 1-1.8 0.9-0.4 2.3 0.1 3.7 1.3 1.6 1.4 1.9 1.5 0.8 0.2-1.4-1.6-1.3-1.8 0.5-1.9 1.1 0 3.4 0.1 5 0.2 1.6 0.1 4.2 0.8 5.8 1.6 1.5 0.8 4.4 1.3 6.5 1.1l3.7-0.2c-11-7.3-13-8-18-8.2-4.2-0.3-7 0.1-9.3 1.3zm83.3 0.8c-2.7 1.4-5.9 3.4-7 4.6l-2 2.1c5.4 0 8.7-0.7 10.8-1.6 2-0.8 5.4-1.5 7.5-1.5 2 0.1 4.8 0.7 6.2 1.5 1.4 0.8 4 1.4 5.8 1.5 2.1 0 3.1-0.4 2.9-1.3-0.2-0.6-2.1-2.6-4.2-4.2-3-2.4-4.8-3.1-9.4-3.3-4.3-0.2-6.7 0.3-10.6 2.2z" />
    <path
       id="Path 3"
       class="s3"
       d="m403.7 554.7c-1.4 0.2-1.5 0.6-0.4 1.8 0.8 1.1 2.9 1.6 7.2 1.5 5 0 5.7-0.2 4-1.2-1.1-0.6-3.6-1.4-5.5-1.8-2-0.3-4.3-0.5-5.3-0.3zm78.8 1.8l-3 1.3c4.6 0.2 6.6-0.4 7.2-1.3 1-1.2 1-1.5 0-1.5-0.6 0.1-2.6 0.7-4.2 1.5z" />
    <path
       id="Path 4"
       class="s4"
       d="m327 64.1c-6.9 0.3-16.8 1.4-22 2.3-5.2 0.9-13.8 2.8-19 4.2-5.2 1.4-13.8 4.2-19 6.1-5.2 1.9-15.1 6.4-22 9.9-6.9 3.5-16.3 8.9-21 12-4.7 3.1-13 9.4-18.5 13.9-5.5 4.5-12.7 11.1-16 14.6-3.4 3.5-8.8 9.8-12.1 13.9-3.4 4.1-8.7 11.3-11.8 16-3.1 4.7-8.5 14.1-12 21-3.5 6.9-8 16.8-9.9 22-1.9 5.2-4.7 13.8-6.1 19-1.4 5.2-3.5 15.1-4.6 22-1.6 9.5-2 17.1-2 32 0 14.9 0.4 22.5 2 32 1.1 6.9 3.2 16.8 4.6 22 1.4 5.2 4.2 13.8 6.1 19 1.9 5.2 6.4 15.1 9.9 22 3.5 6.9 8.9 16.3 12 21 3.1 4.7 9.4 13 13.9 18.5 4.5 5.5 11.1 12.7 14.6 16.1 3.5 3.3 10 8.9 14.4 12.4 4.4 3.5 12.1 9 17 12.3 4.9 3.2 14.2 8.5 20.5 11.7 6.3 3.2 15.8 7.3 21 9.3 5.2 1.9 14.9 4.9 21.5 6.5 6.6 1.7 16.7 3.8 22.5 4.7 6.7 1 16.6 1.6 27.5 1.6 9.4-0.1 20.6-0.5 25-1 4.4-0.5 12.7-1.9 18.5-3.1 5.8-1.2 14.1-3.3 18.5-4.7 4.4-1.4 11.4-3.9 15.5-5.5 4.1-1.6 12.6-5.5 18.8-8.6l11.3-5.7-180.6-180.5 181-180.8c-17.8-8.5-26.4-12.4-30.5-14-4.1-1.6-11.3-4.2-16-5.6-4.7-1.5-13.9-3.8-20.5-5.1-6.6-1.3-17.2-2.7-23.5-3-6.3-0.3-12.6-0.7-14-0.8-1.4-0.2-8.1 0-15 0.4zm118 104.4l-104.5 104.5 209.5 209.5 209.5-209.5c-162-162-209.2-209-209.5-209-0.3 0-47.5 47-105 104.5z" />
    <path
       id="Path 5"
       class="s5"
       d="m444.5 168l-105 105 210.5 210.5 209.5-210-209.5 209-209.5-209.5 209.5-209.5 209.5 209c-162-162.4-209.2-209.5-209.5-209.5-0.3 0-47.8 47.3-105.5 105z" />
    <path
       id="Path 6"
       class="s6"
       d="m356 182.5l-90.5 90.5 182 181.5-181-181.5c140.3-140.3 180.8-181 180.5-181-0.3 0-41.2 40.7-91 90.5z" />
    <path
       id="Path 7"
       class="s0"
       d="m528 160c-4.1 0.6-11.5 2.1-16.5 3.5-4.9 1.5-11.7 3.8-15 5.3-3.3 1.4-7.9 3.8-10.1 5.2-2.3 1.4-7.7 5.2-12 8.5-4.4 3.2-10.8 8.9-14.4 12.5-3.6 3.6-8.4 9.2-10.6 12.5-2.2 3.3-5.4 8.5-7.1 11.5-1.7 3-4.2 8.4-5.6 12-1.4 3.6-3.5 11.1-4.6 16.8-1.2 5.6-2.4 14.6-2.7 19.9-0.3 5.4-0.1 13.2 0.4 17.3 0.6 4.1 2.2 11.2 3.6 15.8 1.5 4.5 2.9 8.2 3.3 8.2 0.5 0 1.6 1.8 2.5 4 1 2.2 2 3.9 2.3 3.8 0.3-0.2-0.3-2.5-1.4-5.3-1-2.8-2.6-9.3-3.5-14.5-0.9-5.2-1.6-10.6-1.5-12l0.1-2.5c1.3 4.1 1.7 0.9 1.7-6.5 0.1-6.4 0.7-12.8 1.4-14.3 1-2.4 1.1-1.1 0.9 8.5-0.2 6.2 0.1 14.1 0.7 17.6 0.6 3.4 1.8 7.4 2.6 8.9 0.8 1.6 3.9 8 6.9 14.3 3.7 7.8 7.2 13.6 11.1 18 3.1 3.6 6.5 8.5 7.6 11 1.1 2.5 4.4 7.4 7.3 11 2.9 3.6 7.7 8.6 10.7 11.1 3 2.5 8.3 6.5 11.9 8.9 3.6 2.4 8.8 5.4 11.5 6.6 2.8 1.2 8.6 3.3 13 4.7 4.4 1.3 13 3.3 19 4.2 7.5 1.2 13.2 1.5 18 1 3.9-0.3 10.1-1.3 14-2.1 3.9-0.8 9.3-2.2 12-3 2.8-0.9 8.4-3.1 12.5-4.9 4.1-1.8 10.6-5.3 14.5-7.7 3.9-2.5 10-7.1 13.8-10.2 3.7-3.1 9.4-8.9 12.7-12.9 3.2-3.9 7.9-10.8 10.4-15.2 2.5-4.4 5.9-11.6 7.7-16 1.7-4.4 4-12.1 5-17 1-4.9 2.1-13.5 2.5-19 0.3-6.5 0-13.8-0.9-21-0.8-6.2-3-15.6-5-21.5-1.9-5.8-4.5-12.1-5.7-14-1.2-1.9-5.2-8.2-9-14-3.7-5.8-9.9-13.6-13.7-17.3-3.7-3.8-10.4-9.3-14.8-12.2-4.4-3-10.5-6.5-13.5-7.9-3-1.4-10.1-3.9-15.8-5.6-5.6-1.6-14.1-3.7-18.9-4.5-4.9-0.9-14-1.7-20.3-2-6.3-0.2-14.9 0-19 0.5z" />
    <path
       id="Path 8"
       class="s5"
       d="m436.8 284.5c-0.1 2.5 0 5.3 0.3 6.3 0.4 0.9 0.8-1.1 1-4.6 0.2-3.4 0.1-6.2-0.3-6.2-0.3 0-0.8 2-1 4.5z" />
    <path
       id="Path 9"
       class="s4"
       d="m536 188.1c-2.5 0.5-7 1.2-10 1.8-3 0.5-8.2 2.1-11.5 3.6-3.3 1.4-6.2 2.9-6.5 3.3-0.3 0.4-1.5 1.3-2.8 2-1.2 0.6-3.1 1.2-4.2 1.2-1.1 0-2.4 0.8-2.9 1.8-0.4 0.9-2.7 2.5-5 3.5-2.6 1.1-5.6 3.6-8.3 7.1-2.4 3-4.9 5.3-5.5 5-0.7-0.2-2.4 1.1-3.7 2.9-1.4 1.7-4.1 5.9-6 9.2-2 3.3-4.9 10.1-6.5 15-1.6 4.9-3.5 12.7-4.2 17.3-0.8 4.5-1.6 8.2-1.9 8.2-0.3 0-0.8 1.8-1.2 4-0.5 2.2-0.6 5.1-0.3 6.5 0.3 1.4 0.9 2.3 1.5 2 0.6-0.3 1-2.1 1-4 0-1.9 0.7-5.2 1.5-7.2 0.8-2.1 1.7-3.6 2-3.3 0.3 0.3 0.1 4.3-0.5 9-0.5 4.7-0.6 8.7-0.1 9 0.4 0.3 1.1 3.6 1.5 7.5 0.5 3.9 0.9 8.1 1.1 9.5 0.1 1.4 1.7 6.4 3.4 11.3 1.7 4.8 4.1 9.7 5.3 11l2.2 2.2c-1.2-3.9-1.8-6.1-2-7.5-0.5-2.4-0.5-2.5 1.1-0.5 0.9 1.1 2.8 4.4 4.3 7.3 1.5 2.9 3.7 6.3 5 7.5 1.2 1.2 2.3 1.8 2.3 1.2 0-0.6-1-1.9-2.1-3-1.1-1.1-2.1-2.8-2-3.7 0-1 0.3-1.8 0.8-1.8 0.4 0 2.5 2.1 4.7 4.7 2.2 2.5 5 5.6 6.3 6.7 1.3 1.2 3.3 3 4.4 4.1 1.2 1.1 4.4 3.9 7.2 6.3 2.8 2.3 5.7 4.2 6.4 4.2 0.6 0 2 0.8 3 1.8 0.9 0.9 3.7 2.3 6.2 3.1 2.5 0.7 5.4 1.7 6.5 2.1 1.1 0.5 4.7 1.3 8 1.9 3.3 0.6 11 0.8 17 0.6 6-0.3 11.2-0.9 11.5-1.3 0.3-0.4 1.9-0.9 3.5-1 1.6-0.1 5.9-0.9 9.5-1.8 3.6-0.8 7.5-1.7 8.8-2 1.2-0.2 2.2-0.8 2.2-1.4 0-0.6 0.7-1 1.5-1 0.8 0 4.3-1.4 7.7-3.1 3.5-1.6 7.9-4.2 9.8-5.7 1.9-1.5 5.4-4.6 7.7-6.9 2.4-2.4 4.3-4.5 4.3-4.8 0-0.3-2.8 1.7-6.3 4.3-3.4 2.7-8.1 5.9-10.4 7.3-2.4 1.4-4.5 2-5 1.5-0.4-0.5-0.3-1 0.2-1.2 0.5-0.2 3.5-2.1 6.6-4.2 3-2 6.8-5.2 8.2-6.9 1.5-1.8 2.2-3.3 1.7-3.3-0.5 0-1.7 1.1-2.5 2.5-0.8 1.4-2.4 2.5-3.5 2.5-1.1 0-2-0.3-2-0.7-0.1-0.5 2-3 4.6-5.8 2.6-2.7 5.9-6.7 7.3-8.9 1.4-2.1 3.4-5 4.3-6.5 0.9-1.4 2.1-3 2.6-3.6 0.4-0.6 1.4-2 2-3.2 0.7-1.3 1.2-3.2 1.2-4.3 0-1.1 0.7-2.2 1.5-2.5 0.9-0.3 1.5-1.7 1.5-3.5 0-1.6 0.5-3.2 1-3.5 0.5-0.3 1.1-1.5 1.1-2.7 0.1-1.3 0.3-8.3 0.5-15.5 0.3-8.5 0-13.3-0.6-13.3-0.5 0-1.2-2.1-1.5-4.7-0.3-2.7-1.9-8.3-3.5-12.5-1.7-4.3-2.8-7.8-2.5-7.8 0.3 0-0.4-1.3-1.5-3-1.1-1.6-1.9-3.3-1.8-3.7 0.1-0.5-0.4-2.1-1.1-3.8-0.7-1.6-2.9-5-4.9-7.5-2-2.5-6.4-7.1-9.7-10.4-4.2-4.1-8.7-7.1-15-10.2-5-2.4-12.7-5.4-17.2-6.6-5.7-1.6-8.3-2.8-8.2-3.8 0-1.2-0.3-1.3-1.3-0.3-0.7 0.7-1.7 1-2.1 0.5-0.5-0.4-5.4-0.7-11-0.8-5.6 0-12.2 0.3-14.7 0.7zm-44 165.2c-0.1 0.1 3.2 2.5 7.2 5.2 4 2.8 9.1 5.9 11.3 7 2.2 1 5.5 2.5 7.2 3.2 1.8 0.7 3.3 1 3.3 0.6-0.1-0.5-4-2.6-8.8-4.8-4.7-2.2-10.9-5.7-13.7-7.8-2.7-2-5.3-3.7-5.8-3.7-0.4 0-0.7 0.1-0.7 0.3z" />
  </g>
</svg>
