<?xml version="1.0" encoding="UTF-8" standalone="no"?>
<svg
   version="1.2"
   viewBox="0 0 605.42157 107.80814"
   width="1210.8431"
   height="215.61629"
   id="svg11"
   sodipodi:docname="logoNameWhite.svg"
   inkscape:version="1.2.2 (732a01da63, 2022-12-09)"
   xmlns:inkscape="http://www.inkscape.org/namespaces/inkscape"
   xmlns:sodipodi="http://sodipodi.sourceforge.net/DTD/sodipodi-0.dtd"
   xmlns="http://www.w3.org/2000/svg"
   xmlns:svg="http://www.w3.org/2000/svg">
  <defs
     id="defs15" />
  <sodipodi:namedview
     id="namedview13"
     pagecolor="#505050"
     bordercolor="#eeeeee"
     borderopacity="1"
     inkscape:showpageshadow="0"
     inkscape:pageopacity="0"
     inkscape:pagecheckerboard="0"
     inkscape:deskcolor="#505050"
     showgrid="false"
     inkscape:zoom="1.1014599"
     inkscape:cx="687.26969"
     inkscape:cy="80.801852"
     inkscape:window-width="1920"
     inkscape:window-height="1046"
     inkscape:window-x="-11"
     inkscape:window-y="-11"
     inkscape:window-maximized="1"
     inkscape:current-layer="svg11" />
  <title
     id="title2">logoName</title>
  <style
     id="style4">
		.s0 { fill: #6f7275 } 
		.s1 { fill: #232425 } 
		.s2 { opacity: .5;fill: none;stroke: #000000;stroke-miterlimit:100 } 
	</style>
  <path
     style="fill:#ffffff;fill-opacity:1;stroke:#ffffff;stroke-width:0.453943;stroke-opacity:1"
     d="M 47.525622,107.4597 C 31.512247,105.12651 17.593552,96.534187 9.3560825,83.896797 -2.994969,64.948612 -2.807579,42.186147 9.8568525,23.067727 17.400382,11.679902 32.120192,2.6067018 46.367172,0.56299183 c 4.7946,-0.68778 13.68894,-0.27648 19.350935,0.89483997 3.47455,0.7188 12.26602,3.805885 14.14425,4.966695 0.366025,0.22622 -7.37005,8.2606252 -22.814085,23.6938702 -12.852355,12.843375 -23.36791,23.58431 -23.36791,23.86875 0,0.284445 10.541375,10.97326 23.425275,23.75293 12.88391,12.779665 23.35297,23.299993 23.26458,23.378493 -1.361325,1.2091 -10.73368,4.61805 -15.14082,5.50708 -3.185825,0.64266 -15.149125,1.20627 -17.703775,0.83405 z"
     id="path1356" />
  <path
     style="fill:#ffffff;fill-opacity:1;stroke:#ffffff;stroke-width:0.453943;stroke-opacity:1"
     d="M 82.137332,80.603577 55.469612,53.932982 82.140207,27.265257 108.8108,0.59753683 135.47852,27.268132 l 26.66773,26.670595 -26.6706,26.66772 -26.6706,26.667723 z m 35.806858,2.33778 c 7.06972,-1.466475 14.39532,-7.76344 18.46658,-15.873565 2.57762,-5.134715 3.61737,-13.098285 2.43499,-18.649915 -1.36954,-6.430465 -6.19562,-14.592345 -10.61239,-17.94773 -6.22021,-4.725435 -8.65591,-5.59937 -17.52303,-6.28731 -10.64508,-0.82588 -16.267023,0.682505 -22.377833,6.00404 -8.83569,7.694465 -11.87733,14.49145 -11.433075,25.548845 0.160665,3.998955 0.402185,5.39839 1.19747,6.938535 1.26955,2.4586 2.33643,2.561725 2.34808,0.22697 0.0084,-1.677695 0.03625,-1.650785 1.92926,1.863045 2.402205,4.458985 7.32954,10.670275 10.956245,13.811195 5.110875,4.426295 8.978693,5.613265 17.066243,5.23737 2.37185,-0.110245 5.76821,-0.50241 7.54746,-0.87148 z"
     id="path1703" />
  <path
     style="fill:#ffffff;fill-opacity:1;stroke:#ffffff;stroke-width:0.453943;stroke-opacity:1"
     d="m 222.21488,81.409442 c -2.53474,-0.54157 -4.04675,-1.369875 -6.58763,-3.608815 -4.37449,-3.85465 -7.71287,-9.69675 -8.49887,-14.872865 -0.7132,-4.696675 -0.61823,-12.179845 0.19499,-15.365225 2.87005,-11.241815 11.93346,-18.143015 22.75508,-17.326535 1.78494,0.13467 3.80435,0.53775 4.48758,0.89573 1.16724,0.61158 0.93023,0.67054 -3.92626,0.976725 -3.35075,0.211255 -5.81541,0.61152 -7.00791,1.138105 -3.17741,1.403065 -6.47927,6.63225 -7.46294,11.81909 -0.70686,3.727265 -0.56401,14.520625 0.24395,18.432205 0.87475,4.23495 1.97818,6.836935 4.29085,10.118175 2.80877,3.98511 5.61518,5.47658 10.35432,5.50283 3.99631,0.02215 5.91585,-0.83037 9.46869,-4.205225 l 3.32924,-3.162455 -0.004,-12.53921 c -0.004,-13.2558 -0.31661,-16.69403 -1.93707,-21.279365 -0.69616,-1.96989 -0.86536,-3.027305 -0.55275,-3.454385 2.32064,-3.17043 2.21749,-2.646085 2.56432,-13.035185 0.36286,-10.86937 0.75477,-13.1162452 2.61169,-14.9731652 1.44833,-1.448325 4.52525,-2.477435 5.24757,-1.755105 0.64003,0.640025 0.61246,71.8508852 -0.0285,73.7032652 -0.71233,2.058555 -2.52399,3.15597 -5.20999,3.15597 -2.05266,0 -2.42937,-0.158725 -3.43926,-1.449125 -1.41256,-1.804925 -2.10974,-1.8103 -7.14265,-0.05508 -4.35714,1.519555 -10.23077,2.091775 -13.75098,1.33964 z"
     id="path1705" />
  <path
     style="fill:#ffffff;fill-opacity:1;stroke:#ffffff;stroke-width:0.453943;stroke-opacity:1"
     d="m 102.22575,75.554942 c -2.590388,-0.83238 -5.406503,-2.44029 -8.215978,-4.69105 -0.8986,-0.71989 -2.22638,-1.466735 -2.95063,-1.659655 -1.637465,-0.43617 -3.147585,-2.966025 -3.83013,-6.416495 -0.271635,-1.373175 -0.787565,-3.66818 -1.146515,-5.100005 -0.9195,-3.66783 -0.818945,-5.67523 0.49219,-9.82571 2.45019,-7.756225 7.736425,-12.68521 15.859923,-14.788095 9.78167,-2.532125 20.28232,1.809815 24.49844,10.12993 2.59898,5.12884 3.23171,13.02303 1.42415,17.76811 -0.42799,1.123505 -1.18769,3.26839 -1.68824,4.7664 -1.7228,5.15592 -2.04281,5.554385 -6.02638,7.50387 -2.01502,0.986115 -4.88117,2.10138 -6.36922,2.478365 -3.59024,0.909555 -8.92999,0.836125 -12.04761,-0.165665 z"
     id="path1707" />
  <path
     style="fill:#ffffff;fill-opacity:1;stroke:#ffffff;stroke-width:0.453943;stroke-opacity:1"
     d="m 269.44664,80.964217 c -3.93884,-2.259125 -6.2548,-5.83993 -6.96816,-10.773775 -0.66623,-4.6079 -0.60175,-34.7499 0.0775,-36.240765 0.70512,-1.54756 2.40699,-2.395885 5.54682,-2.764915 l 2.53578,-0.29803 0.014,16.97188 c 0.008,9.33453 0.2092,18.47532 0.44776,20.312865 0.74166,5.712705 3.12011,8.152925 8.35623,8.57323 5.27605,0.42351 9.67062,-1.96108 12.20896,-6.624835 1.76856,-3.249425 2.11664,-7.265575 2.12068,-24.46848 l 0.003,-14.63966 h 4.31246 4.31246 v 24.910125 24.91012 l -1.41857,0.283715 c -0.78022,0.15604 -2.50412,0.283715 -3.83091,0.283715 -2.1621,0 -2.62996,-0.18835 -4.51029,-1.815775 -2.59655,-2.247295 -4.05398,-2.325365 -7.49006,-0.401235 -3.86988,2.167045 -7.06316,3.12538 -10.39827,3.120635 -2.47703,-0.0035 -3.39421,-0.234345 -5.31988,-1.338815 z"
     id="path1709" />
  <path
     style="fill:#ffffff;fill-opacity:1;stroke:#ffffff;stroke-width:0.453943;stroke-opacity:1"
     d="m 309.56281,54.988117 c -0.75845,-0.570235 -0.75845,-0.67139 0,-2.15485 0.4377,-0.856095 1.3724,-1.979605 2.07711,-2.49669 1.19986,-0.8804 2.00444,-0.95034 12.65916,-1.100395 l 11.37788,-0.16024 -0.22584,2.350365 c -0.37901,3.944405 -0.0655,3.850595 -13.41912,4.01575 -9.13378,0.112965 -11.84651,0.0142 -12.46919,-0.45394 z"
     id="path1711" />
  <path
     style="fill:#ffffff;fill-opacity:1;stroke:#ffffff;stroke-width:0.453943;stroke-opacity:1"
     d="m 342.90636,57.804292 0.13616,-23.59511 1.17686,-1.176465 c 1.17268,-1.17229 3.60108,-1.98958 5.97274,-2.010155 l 1.24835,-0.01085 v 25.193835 25.19384 h -4.33513 -4.33513 z"
     id="path1713" />
  <path
     style="fill:#ffffff;fill-opacity:1;stroke:#ffffff;stroke-width:0.453943;stroke-opacity:1"
     d="m 373.77671,81.901362 c -2.81156,-0.971125 -5.2628,-2.82616 -7.02557,-5.316775 -1.74605,-2.46698 -2.05818,-5.735105 -2.43408,-25.485875 l -0.31319,-16.455435 -2.99062,-0.0069 c -1.64483,-0.004 -3.29702,-0.211775 -3.67152,-0.462115 -1.18941,-0.79507 1.32386,-2.52488 4.47484,-3.079915 4.55893,-0.80304 5.87986,-2.210585 7.53261,-8.02657 0.82852,-2.91551 1.81065,-4.7664 2.52919,-4.7664 0.26755,0 0.44347,2.521005 0.44347,6.355205 v 6.3552 h 7.29294 c 7.5132,0 9.04901,0.301455 9.04901,1.77616 0,1.41795 -0.96335,1.737895 -5.90126,1.95991 -5.8274,0.26201 -7.9335,1.032025 -8.855,3.23749 -0.92027,2.20252 -1.67027,12.460035 -1.74709,23.894565 l -0.0656,9.759775 1.27024,2.58668 c 1.52632,3.10816 3.39241,4.410625 6.8272,4.765125 3.65724,0.37746 5.32794,-0.384465 8.46528,-3.860605 2.90624,-3.220085 3.63294,-2.967515 1.35533,0.47106 -2.68728,4.05705 -8.12369,7.169245 -12.47073,7.13914 -0.74901,-0.0052 -2.44347,-0.38304 -3.76548,-0.83967 z"
     id="path1715" />
  <path
     style="fill:#ffffff;fill-opacity:1;stroke:#ffffff;stroke-width:0.453943;stroke-opacity:1"
     d="m 346.30478,17.342147 c -0.38045,-1.51582 -2.80166,-3.89273 -5.28167,-5.18503 -1.81113,-0.943755 -1.92044,-1.079215 -0.88584,-1.09774 1.72458,-0.0309 4.66217,-2.3588552 5.74933,-4.5562102 l 0.94483,-1.909655 0.67699,1.293105 c 0.75825,1.448325 3.02593,3.658105 5.03621,4.9076102 l 1.33113,0.82738 -1.9088,0.898375 c -1.67351,0.787635 -2.47755,1.641475 -4.88525,5.187815 -0.43799,0.64513 -0.53466,0.59963 -0.77693,-0.36565 z"
     id="path1717" />
  <path
     style="fill:#ffffff;fill-opacity:1;stroke:#ffffff;stroke-width:0.453943;stroke-opacity:1"
     d="m 390.5447,53.859972 c 0.72005,-2.83677 1.67024,-3.7164 4.5982,-4.256755 2.8593,-0.527685 21.83002,-0.42299 22.37489,0.12348 0.57518,0.576875 -0.88773,3.620795 -2.21765,4.61434 -1.21293,0.90615 -1.91176,0.96467 -13.23904,1.108695 l -11.95852,0.152045 z"
     id="path1719" />
  <path
     style="fill:#ffffff;fill-opacity:1;stroke:#ffffff;stroke-width:0.453943;stroke-opacity:1"
     d="m 424.16935,45.197452 c 0.11838,-33.23099 0.19303,-36.3189902 0.90958,-37.6280552 0.89404,-1.63333 2.74763,-2.432415 5.64233,-2.432415 h 1.975 V 43.268192 81.399407 h -4.32794 -4.32794 z"
     id="path1721" />
  <path
     style="fill:#ffffff;fill-opacity:1;stroke:#ffffff;stroke-width:0.453943;stroke-opacity:1"
     d="m 444.12631,49.934417 c -2.07809,-2.144045 -2.50422,-4.00406 -1.66648,-7.274065 0.7843,-3.06142 1.62425,-4.377095 4.4677,-6.9981 1.9294,-1.77846 6.91292,-4.65052 8.06947,-4.65052 0.2956,0 -0.44775,1.00328 -1.65185,2.22951 -3.63672,3.703645 -3.91036,4.758645 -2.84528,10.96975 l 0.55378,3.229365 -2.11615,1.999405 c -1.16389,1.099675 -2.39438,1.999405 -2.73444,1.999405 -0.34006,0 -1.2746,-0.677135 -2.07675,-1.50475 z"
     id="path1723" />
  <path
     style="fill:#ffffff;fill-opacity:1;stroke:#ffffff;stroke-width:0.453943;stroke-opacity:1"
     d="m 444.89419,81.396687 c -3.35524,-1.77296 -4.92739,-4.779105 -4.93231,-9.43118 -0.004,-3.257315 0.91872,-5.219445 3.25364,-6.922965 2.05501,-1.499315 7.08259,-4.162075 8.96134,-4.746215 0.96932,-0.301375 0.90326,-0.142365 -0.57188,1.376535 -2.0646,2.12585 -3.02071,5.157915 -3.02071,9.57942 0,3.0377 0.11239,3.43439 1.38298,4.88152 1.86455,2.1236 4.74835,3.192945 7.56335,2.80459 2.5694,-0.35447 2.21705,0.0214 -1.9102,2.037625 -3.39104,1.65658 -8.04211,1.83899 -10.72621,0.42067 z"
     id="path1725" />
  <path
     style="fill:#ffffff;fill-opacity:1;stroke:#ffffff;stroke-width:0.453943;stroke-opacity:1"
     d="m 473.1496,82.079812 c -2.36175,-0.73652 -4.8935,-3.03927 -5.28095,-4.803245 -0.3609,-1.643125 -1.29405,-2.38449 -2.514,-1.99729 -0.96695,0.306895 -0.966,0.29524 0.0917,-1.134915 1.0168,-1.37487 1.06865,-1.795065 1.06865,-8.658085 0,-7.192895 -0.005,-7.21646 -1.2002,-8.415415 l -1.2002,-1.20232 1.4272,-2.025575 1.42715,-2.02558 -0.11375,-6.37375 c -0.13775,-7.71532 -0.7488,-11.97109 -1.9581,-13.637505 -1.02015,-1.40574 -0.7273,-1.51633 2.0059,-0.75741 2.25165,0.62522 5.64275,3.74071 6.73015,6.18315 1.0453,2.34802 1.5843,8.328385 1.9554,21.697355 0.34825,12.54311 0.91655,17.890895 2.2553,21.221835 l 1.04905,2.610175 -1.87645,-0.03035 c -1.0321,-0.0167 -2.77215,-0.309675 -3.86685,-0.651055 z"
     id="path1727" />
  <path
     style="fill:#ffffff;fill-opacity:1;stroke:#ffffff;stroke-width:0.453943;stroke-opacity:1"
     d="m 498.101,82.040162 c -6.18955,-1.664125 -9.1415,-5.478685 -10.05685,-12.995755 -0.25185,-2.067985 -0.60275,-10.60317 -0.7798,-18.96707 l -0.3219,-15.20709 -2.7998,-0.22697 c -1.5399,-0.124835 -2.94045,-0.3678 -3.11225,-0.53992 -0.70785,-0.70894 1.97975,-2.57062 4.1528,-2.87662 1.21725,-0.17141 2.8721,-0.74953 3.6774,-1.284705 1.92305,-1.27795 3.5738,-4.45397 3.9147,-7.5319 0.25135,-2.26899 1.65425,-4.71705 2.32105,-4.050225 0.1293,0.129315 0.39035,2.87567 0.58005,6.103015 l 0.3449,5.867895 7.44255,0.453945 c 6.2829,0.38321 7.5203,0.57772 7.94165,1.24834 0.36295,0.57758 0.36295,1.011225 0,1.5888 -0.40525,0.644875 -1.43015,0.848215 -5.445,1.0803 -5.272,0.304755 -6.75515,0.687345 -7.9926,2.06182 -1.9978,2.218925 -2.17395,3.58697 -2.1655,16.816795 0.009,14.15911 0.447,19.910725 1.67965,22.05964 1.0357,1.805515 4.26925,3.49005 6.69295,3.4867 3.1959,-0.0045 5.2547,-0.87009 7.80455,-3.28165 2.60285,-2.46167 2.977,-2.48016 1.48965,-0.07362 -2.23215,3.611715 -7.86105,7.033 -11.45015,6.959475 -0.80205,-0.01645 -2.5652,-0.32747 -3.91805,-0.6912 z"
     id="path1729" />
  <path
     style="fill:#ffffff;fill-opacity:1;stroke:#ffffff;stroke-width:0.453943;stroke-opacity:1"
     d="m 458.7956,100.00641 c -0.3871,-0.748573 -1.51975,-1.900983 -2.51695,-2.560913 l -1.81315,-1.19987 1.2777,-0.777015 c 1.62485,-0.988135 3.7357,-3.481325 3.7357,-4.41237 0,-0.392805 0.6238,0.146905 1.38615,1.19936 0.7624,1.05245 2.122,2.34769 3.02135,2.878305 l 1.6351,0.964755 -1.09205,0.686935 c -0.6006,0.377815 -1.9556,1.56329 -3.01105,2.634395 l -1.919,1.947458 z"
     id="path1731" />
  <path
     style="fill:#ffffff;fill-opacity:1;stroke:#ffffff;stroke-width:0.453943;stroke-opacity:1"
     d="m 537.10315,82.276637 c -3.6648,-0.61789 -9.5737,-3.685025 -12.24435,-6.35568 -2.30585,-2.30585 -4.8725,-6.984995 -5.95895,-10.8635 -0.31645,-1.12982 -0.57035,-4.47721 -0.56805,-7.49006 0.005,-7.05254 1.28175,-12.64026 3.7546,-16.436805 2.9882,-4.587705 8.56965,-9.131835 12.12485,-9.87142 l 1.4205,-0.29551 -1.9769,2.06323 c -2.3044,2.404995 -3.36685,4.34845 -4.94125,9.038505 -1.7277,5.14674 -2.01735,4.82652 4.41755,4.884075 4.2529,0.03805 5.1152,0.13785 3.66625,0.424355 -2.64345,0.52268 -4.3097,1.47235 -6.03885,3.44171 -2.4868,2.83234 -2.94035,4.366365 -2.93575,9.92946 0.005,5.97512 1.05955,9.953695 3.735,14.091085 3.98505,6.162595 11.3844,8.3186 18.92005,5.51289 3.3012,-1.229125 4.43335,-1.312065 2.20905,-0.161825 -3.6429,1.883815 -10.97375,2.86674 -15.58375,2.08949 z"
     id="path1735" />
  <path
     style="fill:#ffffff;fill-opacity:1;stroke:#ffffff;stroke-width:0.453943;stroke-opacity:1"
     d="m 540.9313,100.78428 c -0.51605,-1.049438 -1.7671,-2.540268 -2.7801,-3.312963 l -1.84185,-1.40489 2.0651,-1.54574 c 1.1358,-0.850155 2.4786,-2.351585 2.984,-3.33651 l 0.91895,-1.790775 0.5526,1.336835 c 0.63865,1.544865 2.99745,3.88631 4.8761,4.840175 l 1.29705,0.65859 -1.41265,0.58514 c -1.5139,0.627085 -3.89095,3.07879 -4.69415,4.841608 -0.2704,0.59344 -0.612,1.06944 -0.7592,1.05779 -0.14715,-0.0116 -0.6898,-0.87982 -1.20585,-1.92926 z"
     id="path1737" />
  <path
     style="fill:#ffffff;fill-opacity:1;stroke:#ffffff;stroke-width:0.453943;stroke-opacity:1"
     d="m 544.672,46.456052 c 4.28955,-0.917 6.2942,-2.79742 6.98895,-6.55574 0.6835,-3.69716 0.19845,-5.90767 -1.77575,-8.09288 l -1.64655,-1.822525 1.58185,0.32779 c 4.7002,0.97396 10.28625,4.676255 12.26745,8.130575 1.57705,2.74955 1.6834,4.270885 0.4117,5.88762 -1.30215,1.6554 -3.17415,2.012275 -12.00515,2.28866 -5.0496,0.158035 -7.0622,0.10152 -5.8225,-0.1635 z"
     id="path1739" />
  <path
     style="fill:#ffffff;fill-opacity:1;stroke:#ffffff;stroke-width:0.453943;stroke-opacity:1"
     d="m 571.24315,58.134827 c 0.10395,-16.470285 0.30175,-23.61486 0.67735,-24.46398 0.68185,-1.54151 4.03945,-2.89985 6.133,-2.481135 0.81085,0.16217 1.90525,0.835335 2.432,1.49592 1.324,1.660455 3.02815,1.552945 7.07515,-0.44634 5.5843,-2.75872 11.2828,-2.845935 14.2753,-0.21848 1.85105,1.625265 3.35865,4.33816 3.35865,6.04387 0,0.70281 -0.53235,1.7202 -1.30365,2.491525 -3.3522,3.3522 -7.30455,1.78832 -9.00555,-3.56334 -0.57125,-1.79723 -1.1493,-2.725495 -1.94725,-3.12701 -1.68165,-0.84616 -4.79345,-0.70485 -6.77845,0.30782 -2.17265,1.1084 -4.86435,4.195435 -5.5291,6.34119 -0.4329,1.39751 -1.14755,21.86798 -1.27275,36.458595 l -0.038,4.425945 h -4.11175 -4.11175 z"
     id="path1741" />
  <path
     style="fill:#ffffff;fill-opacity:1;stroke:#ffffff;stroke-width:0.160493;stroke-opacity:1"
     d="m 554.0581,79.369297 c 0,-0.147325 -0.14455,-0.24628 -0.3611,-0.24719 -0.28515,-0.001 -0.20915,-0.09149 0.3611,-0.428955 2.0382,-1.20628 4.62235,-3.735915 6.143,-6.01342 0.50985,-0.7636 1.21745,-1.702485 1.5724,-2.08641 0.54985,-0.59472 0.63,-0.63866 0.5413,-0.29682 -0.4236,1.63299 -2.4736,4.666425 -4.3429,6.42645 -1.612,1.51774 -3.9138,3.07412 -3.9138,2.646345 z"
     id="path1745" />
  <path
     style="fill:#ffffff;fill-opacity:1;stroke:#ffffff;stroke-width:0.0401233;stroke-opacity:1"
     d="m 537.6223,47.341422 c 0.13565,-0.193705 0.039,-0.404135 -0.21535,-0.468005 -0.1,-0.0251 0.1313,-0.0435 0.80245,-0.06386 1.12265,-0.034 2.65475,-0.1237 3.57095,-0.20903 0.68615,-0.0639 2.0847,-0.233915 2.3229,-0.28238 l 0.13615,-0.0277 -0.0885,0.11969 c -0.1858,0.2513 -0.009,0.4528 0.4319,0.4929 0.1844,0.01675 -0.037,0.0338 -0.716,0.05513 -1.3184,0.0414 -3.0917,0.134295 -3.9849,0.208785 -0.75965,0.06336 -2.00925,0.201065 -2.20945,0.24349 -0.1142,0.0242 -0.11485,0.0233 -0.0502,-0.06902 z"
     id="path1747" />
  <path
     style="fill:#ffffff;fill-opacity:1;stroke:#ffffff;stroke-width:0.0401233;stroke-opacity:1"
     d="m 513.4132,74.173397 c 0,-0.05707 1.7222,-1.526125 1.753,-1.49532 0.0215,0.0215 -0.1734,0.561905 -0.37285,1.033915 -0.183,0.43306 -0.19425,0.449655 -0.22005,0.324365 -0.0801,-0.38914 -0.416,-0.385755 -0.9337,0.0094 -0.1764,0.134635 -0.2264,0.162825 -0.2264,0.127635 z"
     id="path1749" />
  <path
     style="fill:#ffffff;fill-opacity:1;stroke:#ffffff;stroke-width:0.056743;stroke-opacity:1"
     d="m 535.4576,31.535182 c 0,-0.0242 0.1919,-0.234585 0.42645,-0.46755 0.2345,-0.232965 0.41525,-0.452655 0.4016,-0.488205 -0.0335,-0.08747 1.46815,-0.466565 1.5457,-0.39019 0.0105,0.01025 -0.2606,0.161585 -0.60225,0.33633 -0.3416,0.17475 -0.87225,0.483295 -1.1792,0.68566 -0.59565,0.3927 -0.5923,0.39087 -0.5923,0.323955 z"
     id="path1761" />
  <path
     style="fill:#ffffff;fill-opacity:1;stroke:#ffffff;stroke-width:0.056743;stroke-opacity:1"
     d="m 463.86255,30.986542 c -0.32765,-0.25784 -1.11145,-0.63896 -1.70725,-0.83014 l -0.4918,-0.15782 0.36885,-0.0025 c 0.36485,-0.0025 1.22205,0.08694 2.1562,0.224505 0.45905,0.06761 0.4735,0.07403 0.29975,0.13311 -0.3337,0.113455 -0.4447,0.347305 -0.3325,0.700705 0.0543,0.17126 -0.007,0.156945 -0.29325,-0.06802 z"
     id="path1763" />
  <path
     style="fill:#ffffff;fill-opacity:1;stroke:#ffffff;stroke-width:0.056743;stroke-opacity:1"
     d="m 454.9962,31.772337 c 0,-0.0186 0.0529,-0.108065 0.11755,-0.19883 0.1887,-0.265 0.2365,-0.50423 0.1325,-0.662945 -0.049,-0.0746 -0.0804,-0.143365 -0.0701,-0.1528 0.017,-0.01535 1.63655,-0.333215 2.06145,-0.40452 0.1101,-0.0185 -0.01,0.06893 -0.34045,0.24734 -0.5904,0.31897 -0.8627,0.491265 -1.4322,0.906215 -0.40635,0.29607 -0.4687,0.33138 -0.4687,0.26554 z"
     id="path1765" />
  <path
     style="fill:#ffffff;fill-opacity:1;stroke:#ffffff;stroke-width:0.056743;stroke-opacity:1"
     d="m 459.3985,79.035192 c 0.023,-0.115795 2.5e-4,-0.20554 -0.0767,-0.30058 -0.0919,-0.11357 -0.17765,-0.14077 -0.52945,-0.168105 l -0.41975,-0.0326 0.34035,-0.105235 c 0.8887,-0.274765 2.25115,-0.90534 3.21345,-1.48728 0.6182,-0.37385 1.84435,-1.20345 2.1866,-1.479465 0.1301,-0.104905 0.2497,-0.190735 0.26575,-0.190735 0.016,0 0.0375,0.06963 0.047,0.154725 0.0105,0.09073 0.0695,0.18031 0.14275,0.216575 0.11665,0.05783 0.1039,0.07208 -0.1972,0.21975 -1.2209,0.59878 -3.22935,1.93448 -4.9351,3.28204 -0.0546,0.0431 -0.0633,0.0179 -0.038,-0.109075 z"
     id="path1767" />
  <path
     style="fill:#ffffff;fill-opacity:1;stroke:#ffffff;stroke-width:0.056743;stroke-opacity:1"
     d="m 453.04571,60.336652 c 0.0455,-0.290265 -0.0812,-0.41665 -0.40509,-0.404365 -0.14588,0.0055 -0.25646,0.0015 -0.24572,-0.0093 0.0676,-0.06686 2.8383,-1.11618 2.86825,-1.086245 0.0125,0.01235 -0.11285,0.105305 -0.2783,0.20655 -0.292,0.178735 -1.33435,0.952875 -1.75877,1.306185 l -0.20972,0.17458 z"
     id="path1769" />
  <path
     style="fill:#ffffff;fill-opacity:1;stroke:#ffffff;stroke-width:0.056743;stroke-opacity:1"
     d="m 391.62023,73.025537 c -0.007,-0.20996 -0.21145,-0.421495 -0.40666,-0.420745 -0.15141,5e-4 -0.66677,0.275655 -0.7863,0.41968 -0.1176,0.1417 -0.1874,0.105905 -0.0883,-0.0453 0.0978,-0.149295 1.09591,-1.05583 1.16246,-1.05583 0.10696,0 0.23454,0.8104 0.17041,1.082485 l -0.0457,0.19423 z"
     id="path1771" />
  <path
     style="fill:#ffffff;fill-opacity:1;stroke:#ffffff;stroke-width:0.056743;stroke-opacity:1"
     d="m 233.44366,32.170597 c 1.02806,-0.09204 1.52524,-0.173125 1.73892,-0.283625 0.20589,-0.10647 0.26649,-0.334345 0.14514,-0.54578 -0.11826,-0.206065 -0.0738,-0.200755 0.32383,0.0387 0.46744,0.281475 0.78599,0.523835 0.73215,0.55703 -0.0859,0.05298 -1.45972,0.20647 -2.37165,0.26497 -1.25179,0.0803 -1.60052,0.0611 -0.56839,-0.0313 z"
     id="path1773" />
  <path
     style="fill:#ffffff;fill-opacity:1;stroke:#ffffff;stroke-width:0.0200616;stroke-opacity:1"
     d="m 81.214937,62.186892 c -0.18533,-0.3037 -0.35829,-0.50744 -0.47966,-0.56503 -0.09288,-0.0441 -0.22777,-0.0407 -0.30708,0.0076 l -0.06493,0.0396 -0.0086,-0.0447 c -0.0045,-0.02455 -0.02765,-0.38322 -0.05092,-0.79699 -0.0233,-0.41377 -0.04695,-0.81099 -0.05263,-0.882715 -0.0102,-0.12906 -0.0084,-0.12566 0.17815,0.33102 0.245915,0.60207 0.36834,0.88726 0.647635,1.508635 0.126715,0.281915 0.226865,0.51609 0.22256,0.5204 -0.0045,0.0045 -0.04235,-0.04875 -0.08454,-0.11786 z"
     id="path1779" />
</svg>
